<svg width="233" height="69" viewBox="0 0 233 69" fill="none" xmlns="http://www.w3.org/2000/svg">
<path d="M121.215 7.90566C153.158 13.538 181.528 21.658 201.571 30.2249C211.596 34.5099 219.512 38.8959 224.748 43.1215C227.367 45.2344 229.295 47.2908 230.486 49.2553C231.675 51.216 232.114 53.0581 231.812 54.7718C231.51 56.4856 230.467 58.0662 228.679 59.502C226.888 60.9406 224.373 62.2137 221.19 63.3036C214.824 65.4833 205.885 66.8974 194.999 67.4952C173.234 68.6903 143.798 66.6176 111.856 60.9853C79.9133 55.3529 51.5436 47.2329 31.5006 38.666C21.4753 34.381 13.5594 29.995 8.32286 25.7695C5.70442 23.6565 3.77654 21.6001 2.58545 19.6357C1.39658 17.6749 0.956724 15.8329 1.25891 14.1191C1.5611 12.4053 2.60445 10.8248 4.39224 9.38888C6.18337 7.9503 8.69833 6.67724 11.8815 5.58731C18.2475 3.40758 27.1861 1.99354 38.0723 1.39574C59.8366 0.200588 89.2727 2.27333 121.215 7.90566Z" stroke="black" stroke-opacity="0.14"/>
</svg>
